<?xml version="1.0" encoding="utf-8"?>
<!-- Generator: Adobe Illustrator 22.0.0, SVG Export Plug-In . SVG Version: 6.00 Build 0)  -->
<svg version="1.1" id="Слой_1" xmlns="http://www.w3.org/2000/svg" xmlns:xlink="http://www.w3.org/1999/xlink" x="0px" y="0px"
	 viewBox="0 0 200 200" style="enable-background:new 0 0 200 200;" xml:space="preserve">
<style type="text/css">
	.st0{fill:#262626;}
</style>
<g>
	<path class="st0" d="M5,127.4l70.6-14.2c0.8,13.4,2.9,26.7,4.6,37.6l-27.6,22.1c-0.8,0.8-1.7,2.1-1.7,3.3v12.5c0,1.3,1.7,5,5.8,3.8
		L85.6,180c2.5,10,7.1,20,14.2,20c5.8,0,10-6.3,14.2-20l29.2,12.5c4.6,1.3,5.8-2.5,5.8-3.8v-12.5c0-1.3-0.4-2.5-1.7-3.3l-27.6-22.1
		c1.7-11.3,3.8-24.6,4.6-37.2l70.6,14.2c3.8,0.4,5-2.9,5-4.2v-20c0-1.7-0.8-2.9-2.5-3.8l-71.4-32.6c-0.4-50.5-18-67.6-25.9-67.6
		S74.7,16.8,73.9,66.9L2.5,99.4c-1.7,0.8-2.5,2.1-2.5,3.8v20C0,124.9,0.8,128.2,5,127.4z M126.5,76l65.6,30.1v12.5l-66.8-13.4
		C126.1,95.3,126.1,83.1,126.5,76z M141.1,177.9v4.2l-24.6-10.4c0.4-2.5,1.3-6.7,2.1-11.7L141.1,177.9z M100.2,8
		c4.2,1.7,18,16.3,18,61.4c-0.4,23.4-1.7,65.1-10.9,104c-3.3,14.2-6.3,17.5-7.1,18.4c-1.3-0.8-4.6-5.4-7.5-18
		c-10.4-48.9-9.6-82.3-10.4-104C82.3,23.9,96,9.7,100.2,8z M83.9,171.7l-24.6,10.4v-4.2l22.1-18C82.7,165,83.5,169.2,83.9,171.7z
		 M8.4,106.1L73.9,76c0,6.7,0.4,18,1.3,28.8L8.4,118.2V106.1z"/>
	<path class="st0" d="M91.4,44.3c2.5,0,4.2-1.7,4.6-3.8c0-0.8,1.7-2.5,4.6-2.5c2.5,0,4.6,1.3,4.6,2.5c0,2.1,2.1,3.8,4.2,3.8
		c0,0,0,0,0.4,0c2.5,0,4.2-2.1,3.8-4.6c-0.8-5.8-6.7-10-13.4-10s-12.5,4.6-12.9,10C87.3,42.2,88.9,43.9,91.4,44.3z"/>
</g>
</svg>
