<?xml version="1.0" encoding="utf-8"?>
<!-- Generator: Adobe Illustrator 22.0.0, SVG Export Plug-In . SVG Version: 6.00 Build 0)  -->
<svg version="1.1" id="Слой_1" xmlns="http://www.w3.org/2000/svg" xmlns:xlink="http://www.w3.org/1999/xlink" x="0px" y="0px"
	 viewBox="0 0 200 200" style="enable-background:new 0 0 200 200;" xml:space="preserve">
<style type="text/css">
	.st0{fill:#262626;}
</style>
<g>
	<path class="st0" d="M183.2,108.4H179V93.5l5.6-5.6c6.5-6.5,6.5-17,0-23.5l-41.8-41.8v-0.3h-0.3l-10.7-10.7
		c-3.2-3.2-7.5-4.9-11.7-4.9c-4.3,0-8.5,1.6-11.7,4.9l-2.4,2.4L86.2,2.7c-2.6-1.5-5.5-2.2-8.3-2.2l0,0c-5.7,0-11.3,3-14.4,8.3
		L34.8,58.6h-9.3C18.6,58.6,13,64.1,13,71v12.5v7.3v100.7c0,4.6,3.7,8.3,8.3,8.3h149.4c4.6,0,8.3-3.7,8.3-8.3v-24.9h4.1
		c2.3,0,4.2-1.9,4.2-4.1v-49.8C187.3,110.2,185.5,108.4,183.2,108.4z M142.8,34.4l6.6,6.6l-6.6,6.6V34.4z M155.3,46.8l23.5,23.5
		c1.6,1.6,2.4,3.7,2.4,5.9c0,2.2-0.8,4.2-2.3,5.7c-0.7-3.8-4.1-6.7-8.2-6.7h-43.8L155.3,46.8z M101.3,75.2h-9.6l9.6-9.6V75.2z
		 M117.9,72.4l-2.7,2.7h-5.6V57.2l8.3-8.3V72.4z M134.5,32.3v23.5l-8.3,8.3V40.6L134.5,32.3z M114.2,17.5c1.6-1.6,3.7-2.4,5.9-2.4
		l0,0l0,0c2.2,0,4.3,0.9,5.9,2.4l5.9,5.9L80,75.2H56.5L114.2,17.5z M70.7,12.9c1.5-2.6,4.2-4.2,7.2-4.2c1.5,0,2.9,0.4,4.1,1.1
		l17.8,10.3l-55,55.1h-10L70.7,12.9z M25.5,66.9H30l-4.8,8.3C23,75,21.3,73.2,21.3,71C21.3,68.7,23.2,66.9,25.5,66.9z M170.7,191.4
		H21.3V90.7v-7.3h149.4v24.9h-41.5c0,0-16.6,19.9-16.6,29.1c0,9.2,16.6,29.1,16.6,29.1h41.5L170.7,191.4L170.7,191.4z M179,158.2
		h-45.8c-1.5-1.9-3.4-4.5-5.4-7.4c-6.5-9.6-6.9-13.1-6.9-13.4c0-0.2,0.4-3.8,6.9-13.4c2-2.9,3.9-5.5,5.4-7.4H179V158.2z"/>
	<path class="st0" d="M145.8,149.9c6.9,0,12.5-5.6,12.5-12.5c0-6.9-5.6-12.5-12.5-12.5c-6.9,0-12.5,5.6-12.5,12.5
		C133.4,144.3,139,149.9,145.8,149.9z M145.8,133.3c2.3,0,4.2,1.9,4.2,4.1c0,2.3-1.9,4.1-4.2,4.1c-2.3,0-4.1-1.9-4.1-4.1
		C141.7,135.1,143.5,133.3,145.8,133.3z"/>
</g>
</svg>
