<?xml version="1.0" encoding="utf-8"?>
<!-- Generator: Adobe Illustrator 22.0.0, SVG Export Plug-In . SVG Version: 6.00 Build 0)  -->
<svg version="1.1" id="Слой_1" xmlns="http://www.w3.org/2000/svg" xmlns:xlink="http://www.w3.org/1999/xlink" x="0px" y="0px"
	 viewBox="0 0 200 200" style="enable-background:new 0 0 200 200;" xml:space="preserve">
<style type="text/css">
	.st0{fill:#262626;}
</style>
<symbol id="1" viewBox="0 0 200 200">
	<path class="st0" d="M5,127.4l70.6-14.2c0.8,13.4,2.9,26.7,4.6,37.6l-27.6,22.1c-0.8,0.8-1.7,2.1-1.7,3.3v12.5c0,1.3,1.7,5,5.8,3.8
		L85.6,180c2.5,10,7.1,20,14.2,20c5.8,0,10-6.3,14.2-20l29.2,12.5c4.6,1.3,5.8-2.5,5.8-3.8v-12.5c0-1.3-0.4-2.5-1.7-3.3l-27.6-22.1
		c1.7-11.3,3.8-24.6,4.6-37.2l70.6,14.2c3.8,0.4,5-2.9,5-4.2v-20c0-1.7-0.8-2.9-2.5-3.8l-71.4-32.6c-0.4-50.5-18-67.6-25.9-67.6
		S74.7,16.8,73.9,66.9L2.5,99.4c-1.7,0.8-2.5,2.1-2.5,3.8v20C0,124.9,0.8,128.2,5,127.4z M126.5,76l65.6,30.1v12.5l-66.8-13.4
		C126.1,95.3,126.1,83.1,126.5,76z M141.1,177.9v4.2l-24.6-10.4c0.4-2.5,1.3-6.7,2.1-11.7L141.1,177.9z M100.2,8
		c4.2,1.7,18,16.3,18,61.4c-0.4,23.4-1.7,65.1-10.9,104c-3.3,14.2-6.3,17.5-7.1,18.4c-1.3-0.8-4.6-5.4-7.5-18
		c-10.4-48.9-9.6-82.3-10.4-104C82.3,23.9,96,9.7,100.2,8z M83.9,171.7l-24.6,10.4v-4.2l22.1-18C82.7,165,83.5,169.2,83.9,171.7z
		 M8.4,106.1L73.9,76c0,6.7,0.4,18,1.3,28.8L8.4,118.2V106.1z"/>
	<path class="st0" d="M91.4,44.3c2.5,0,4.2-1.7,4.6-3.8c0-0.8,1.7-2.5,4.6-2.5c2.5,0,4.6,1.3,4.6,2.5c0,2.1,2.1,3.8,4.2,3.8
		c0,0,0,0,0.4,0c2.5,0,4.2-2.1,3.8-4.6c-0.8-5.8-6.7-10-13.4-10s-12.5,4.6-12.9,10C87.3,42.2,88.9,43.9,91.4,44.3z"/>
</symbol>
<symbol id="2" viewBox="0 0 200 200">
	<g>
		<path class="st0" d="M181.6,122.2c-5.3-5.6-26.9-14.1-35.6-17.5V93.1c6.3-6.3,8.7-13.8,9.4-15.9c5.3-6.6,10.3-15.9,3.1-20.6
			l0.6-7.8h2.8c2.2,0,3.8-2.5,2.8-4.4c0-0.3-1.3-2.5-4.1-4.1V22.8c0-4.1-1.9-8.1-5.3-10.3C148.4,7.8,135.3,0,121.6,0
			c-14.1,0-27.5,7.8-34.4,12.5c-3.4,2.2-5.3,6.3-5.3,10.3V40c-2.8,1.6-4.1,3.8-4.1,4.1c-0.9,1.9,0.3,4.4,2.8,4.4h2.8l0.6,7.8
			c-1.6,0.9-2.8,2.5-3.1,4.4c-1.3,4.1,0.9,9.4,6.6,16.2c0.6,2.5,3.1,9.7,9.4,15.9v11.6c-10.3,4.1-30.9,12.5-35.6,17.5
			c-1.9,2.2-3.4,4.4-4.7,6.6c-3.1-0.9-6.3-1.3-9.7-1.3C26.3,127.5,10,143.8,10,163.8c0,19.7,16.3,36.3,36.6,36.3
			c16.3,0,30.3-10.9,34.7-26.3c1.3,0,1.9,0,1.6,0c5.6,0,27.8,0,103.1,0c1.9,0,3.1-1.3,3.1-3.1v-29.4
			C189.4,134.4,186.9,127.8,181.6,122.2z M147.8,112.2l-15.3,20l-6.9-6.6l17.5-15.6L147.8,112.2z M121.3,121.6l-18.4-16.3v-7.2
			c4.7,2.8,10.6,5,18.4,5s13.8-1.9,18.4-5v7.2L121.3,121.6z M88.1,22.8c0-2.2,0.9-4.1,2.8-5.3c5.9-4.1,18.1-11.3,30-11.3
			s24.1,7.2,30.3,11.6c1.6,1.3,2.8,3.1,2.8,5.3v14.1c-20.6-10.3-45.3-10.3-65.9,0V22.8z M151.6,42.5h-30.6H90.3
			C109.7,32.8,132.5,32.8,151.6,42.5z M92.2,73.8c-2.8-3.4-8.4-10.9-4.1-12.5c0,0,0.3-0.3,0.6-0.3c1.6-0.9,1.3-2.5,1.3-2.8l-0.6-9.1
			h31.9h31.6c-0.6,8.1-1.9,11.3,1.3,12.2c4.4,1.6-1.3,9.1-4.1,12.5c-0.3,0.3-0.6,0.9-0.6,1.3c-0.3,0.9-5.3,21.9-28.1,21.9
			C97.5,96.9,93.1,74.7,92.2,73.8z M99.1,110.3l17.5,15.6l-6.9,6.6l-15.3-20L99.1,110.3z M51.9,163.8c0,2.8-2.5,5.3-5.3,5.3
			c-3.1,0-5.3-2.5-5.3-5.3c0-2.8,2.5-5.3,5.3-5.3S51.9,160.6,51.9,163.8z M19.1,175.9c-1.6-3.8-2.5-7.8-2.5-12.2
			c0-15.6,11.9-28.4,26.9-30v18.8c-5,1.3-8.4,5.9-8.4,11.3c0,0.9,0,1.9,0.3,2.8L19.1,175.9z M46.6,193.8c-10,0-18.8-5-24.4-12.5
			l16.3-9.4c2.2,2.2,5,3.4,8.1,3.4s5.9-1.3,8.1-3.4l16.3,9.4C65.3,188.8,56.6,193.8,46.6,193.8z M73.8,175.9l-16.3-9.4
			c0.3-0.9,0.3-1.9,0.3-2.8c0-5.3-3.8-9.7-8.4-11.3v-18.8c15,1.6,26.9,14.4,26.9,30C76.6,168.1,75.6,172.2,73.8,175.9z M182.5,167.5
			c0,0-0.3,0-0.6,0C182.2,167.5,182.2,167.5,182.5,167.5c-0.3,0-0.6,0-0.9,0s-0.3,0-0.3,0c-5.3,0-26.6,0-98.7,0
			c0-1.3,0.3-2.5,0.3-3.8c0-14.4-8.4-26.9-20.9-32.8c0.9-1.6,1.9-3.1,3.4-4.4c2.8-3.1,14.7-8.4,23.1-11.9l18.4,24.1
			c1.3,1.6,3.1,1.6,4.7,0.3l9.7-9.1l9.7,9.1c1.6,1.3,3.4,0.9,4.7-0.3l18.4-24.1c8.1,3.1,20.3,8.7,23.1,11.9
			c4.1,4.4,6.3,9.4,5.9,14.7v26.3C182.8,167.5,182.5,167.5,182.5,167.5z"/>
	</g>
	<g>
		<path class="st0" d="M122.8,144.1h-3.1c-1.9,0-3.1,1.3-3.1,3.1c0,1.9,1.3,3.1,3.1,3.1h3.1c1.9,0,3.1-1.3,3.1-3.1
			C125.9,145.3,124.4,144.1,122.8,144.1z"/>
	</g>
	<g>
		<path class="st0" d="M122.8,156.9h-3.1c-1.9,0-3.1,1.3-3.1,3.1s1.3,3.1,3.1,3.1h3.1c1.9,0,3.1-1.3,3.1-3.1
			S124.4,156.9,122.8,156.9z"/>
	</g>
</symbol>
<symbol id="3" viewBox="0 0 200 200">
	<path class="st0" d="M183.2,108.4H179V93.5l5.6-5.6c6.5-6.5,6.5-17,0-23.5l-41.8-41.8v-0.3h-0.3l-10.7-10.7
		c-3.2-3.2-7.5-4.9-11.7-4.9c-4.3,0-8.5,1.6-11.7,4.9l-2.4,2.4L86.2,2.7c-2.6-1.5-5.5-2.2-8.3-2.2l0,0c-5.7,0-11.3,3-14.4,8.3
		L34.8,58.6h-9.3C18.6,58.6,13,64.1,13,71v12.5v7.3v100.7c0,4.6,3.7,8.3,8.3,8.3h149.4c4.6,0,8.3-3.7,8.3-8.3v-24.9h4.1
		c2.3,0,4.2-1.9,4.2-4.1v-49.8C187.3,110.2,185.5,108.4,183.2,108.4z M142.8,34.4l6.6,6.6l-6.6,6.6V34.4z M155.3,46.8l23.5,23.5
		c1.6,1.6,2.4,3.7,2.4,5.9c0,2.2-0.8,4.2-2.3,5.7c-0.7-3.8-4.1-6.7-8.2-6.7h-43.8L155.3,46.8z M101.3,75.2h-9.6l9.6-9.6V75.2z
		 M117.9,72.4l-2.7,2.7h-5.6V57.2l8.3-8.3V72.4z M134.5,32.3v23.5l-8.3,8.3V40.6L134.5,32.3z M114.2,17.5c1.6-1.6,3.7-2.4,5.9-2.4
		l0,0l0,0c2.2,0,4.3,0.9,5.9,2.4l5.9,5.9L80,75.2H56.5L114.2,17.5z M70.7,12.9c1.5-2.6,4.2-4.2,7.2-4.2c1.5,0,2.9,0.4,4.1,1.1
		l17.8,10.3l-55,55.1h-10L70.7,12.9z M25.5,66.9H30l-4.8,8.3C23,75,21.3,73.2,21.3,71C21.3,68.7,23.2,66.9,25.5,66.9z M170.7,191.4
		H21.3V90.7v-7.3h149.4v24.9h-41.5c0,0-16.6,19.9-16.6,29.1c0,9.2,16.6,29.1,16.6,29.1h41.5L170.7,191.4L170.7,191.4z M179,158.2
		h-45.8c-1.5-1.9-3.4-4.5-5.4-7.4c-6.5-9.6-6.9-13.1-6.9-13.4c0-0.2,0.4-3.8,6.9-13.4c2-2.9,3.9-5.5,5.4-7.4H179V158.2z"/>
	<path class="st0" d="M145.8,149.9c6.9,0,12.5-5.6,12.5-12.5c0-6.9-5.6-12.5-12.5-12.5c-6.9,0-12.5,5.6-12.5,12.5
		C133.4,144.3,139,149.9,145.8,149.9z M145.8,133.3c2.3,0,4.2,1.9,4.2,4.1c0,2.3-1.9,4.1-4.2,4.1c-2.3,0-4.1-1.9-4.1-4.1
		C141.7,135.1,143.5,133.3,145.8,133.3z"/>
</symbol>
</svg>
