<?xml version="1.0" encoding="utf-8"?>
<!-- Generator: Adobe Illustrator 22.0.0, SVG Export Plug-In . SVG Version: 6.00 Build 0)  -->
<svg version="1.1" id="Слой_1" xmlns="http://www.w3.org/2000/svg" xmlns:xlink="http://www.w3.org/1999/xlink" x="0px" y="0px"
	 viewBox="0 0 200 200" style="enable-background:new 0 0 200 200;" xml:space="preserve">
<style type="text/css">
	.st0{fill:#262626;}
</style>
<g>
	<path class="st0" d="M175.4,130.3l-43.5-15.9v-12.1c3.1-4.7,5.1-10,6.1-15.5c10.3-6.1,13.6-19.3,7.6-29.6c-0.4-0.6-0.7-1.2-1.2-1.8
		c0.6-2.9,0.9-5.9,0.9-8.9c0.4-25.3-19.7-46.1-44.9-46.6C75,0.5,54.9,21.3,55.3,46.6c0,3,0.3,6,0.9,8.9c-7.1,9.6-5,23.1,4.6,30.2
		c0.6,0.4,1.1,0.8,1.8,1.2c0.9,5.5,3,10.8,6.1,15.5v12l-44,16C11.9,135,3.5,147,3.5,160.5V200h193.1v-39.6
		C196.5,147,188.1,134.9,175.4,130.3z M62,68.2c0-3,1.2-5.9,3.3-8l1.7-2l-0.6-2.6c-1.3-5.1-1.5-10.5-0.5-15.7c1.5,0,2.9,0,4.5,0
		c20,0,36.6-8.3,41-19.5l0,0c3,7.5,11.5,13.7,22.7,17c1.5,5.9,1.5,12.2,0,18.1l-0.5,2.8l1.9,2c4.4,4.6,4.3,12-0.4,16.4
		c-1,1-2.2,1.8-3.5,2.3l-2.7,1.2l-0.3,3c-0.5,5.3-2.5,10.4-5.6,14.8l-0.9,1.3v19.2l-21.7,5.5l-21.6-5.5V99.2l-0.9-1.3
		c-3.1-4.4-5-9.5-5.6-14.8l-0.3-3L69.1,79C64.8,77.1,62,72.9,62,68.2z M112.3,17.5 M111.6,153.4c-0.1-0.1-0.1-0.3-0.2-0.4l3.3-2.4
		l-1.7,6.9L111.6,153.4z M87.5,157.2l-1.6-6.7l3.1,2.3c-0.1,0.2-0.2,0.3-0.3,0.5L87.5,157.2z M104.7,134.8l2.8,8.5l-7.2,5.3
		l-7.2-5.2l2.8-8.6H104.7z M80.7,129.1l6,1.5l-3.3,10L80.7,129.1z M116.9,140.5l-3.3-10l6-1.5L116.9,140.5z M13.3,160.5
		c0-9.3,5.8-17.6,14.6-20.8l41.5-14.9l12.3,50.5v0.2l0,0l3.5,14.5H13.4L13.3,160.5z M95.4,190.1l-3.5-14.4L97,160h6.3l5.3,15.7
		l-3.5,14.3H95.4z M186.4,190.1h-71.1l3.6-14.6l0,0v-0.2l12.3-50.5l40.8,14.9c8.7,3.2,14.5,11.5,14.5,20.8L186.4,190.1z"/>
	<rect x="130" y="162.5" class="st0" width="36.9" height="10"/>
</g>
</svg>
