<?xml version="1.0" encoding="utf-8"?>
<!-- Generator: Adobe Illustrator 22.0.0, SVG Export Plug-In . SVG Version: 6.00 Build 0)  -->
<svg version="1.1" id="Слой_1" xmlns="http://www.w3.org/2000/svg" xmlns:xlink="http://www.w3.org/1999/xlink" x="0px" y="0px"
	 viewBox="0 0 231.8 200" style="enable-background:new 0 0 231.8 200;" xml:space="preserve">
<style type="text/css">
	.st0{fill:#262626;}
</style>
<path class="st0" d="M126.5,0.5v11.1h11.1v11.3C109.5,24.6,85,39.5,70,61.5h-34v11.1h51.8V61.5h-4c14.2-17,35.5-27.7,59.4-27.7
	c42.9,0,77.6,34.7,77.6,77.6s-34.7,77.6-77.6,77.6c-23.9,0-45.1-10.8-59.3-27.7h3.9v-11.1H35.9v11.1h33.9
	c16,23.4,42.9,38.8,73.3,38.8c48.9,0,88.7-39.8,88.7-88.7c0-22.5-8.4-43-22.3-58.6l6.1-6.1l7.9,7.9l7.8-7.9l-23.5-23.5l-7.9,7.8
	l7.9,7.9l-6.1,6.1c-14.4-12.7-32.8-20.8-53.1-22.1V11.6h11.1V0.5H126.5z M186.3,60.3l-34,33.9c-2.7-1.5-5.9-2.3-9.2-2.3
	c-10.6,0-19.4,8.7-19.4,19.4s8.7,19.4,19.4,19.4s19.4-8.7,19.4-19.4c0-3.4-0.8-6.5-2.3-9.3l33.9-33.9L186.3,60.3z M15.2,83.6v11.1
	h72.6V83.6H15.2z M143.1,103c4.7,0,8.3,3.7,8.3,8.3s-3.7,8.3-8.3,8.3c-4.7,0-8.3-3.7-8.3-8.3S138.5,103,143.1,103z M-0.9,105.8v11.1
	h88.7v-11.1H-0.9z M15.2,128V139h72.6V128H15.2z"/>
</svg>
