<?xml version="1.0" encoding="utf-8"?>
<!-- Generator: Adobe Illustrator 22.0.0, SVG Export Plug-In . SVG Version: 6.00 Build 0)  -->
<svg version="1.1" id="Слой_1" xmlns="http://www.w3.org/2000/svg" xmlns:xlink="http://www.w3.org/1999/xlink" x="0px" y="0px"
	 viewBox="0 0 200 200" style="enable-background:new 0 0 200 200;" xml:space="preserve">
<style type="text/css">
	.st0{fill:#262626;}
</style>
<g>
	<path class="st0" d="M99.7,0C44.9,0,0,44.9,0,99.7s44.9,99.7,99.7,99.7s99.7-44.9,99.7-99.7S154.6,0,99.7,0z M99.7,189.5
		c-49.5,0-89.8-40.2-89.8-89.8S50.2,10,99.7,10s89.8,40.2,89.8,89.8S149.3,189.5,99.7,189.5z M99.7,82.1c-9.6,0-17.6,8-17.6,17.6
		s8,17.6,17.6,17.6s17.6-8,17.6-17.6S109.4,82.1,99.7,82.1z M99.7,107.4c-4.3,0-7.6-3.3-7.6-7.6c0-4.3,3.3-7.6,7.6-7.6
		c4.3,0,7.6,3.3,7.6,7.6C107.4,104,104,107.4,99.7,107.4z M85.1,26.6c-0.3-2.7,1.7-5.3,4.3-5.7c2.7-0.3,5.3,1.7,5.7,4.3l6.6,50.2
		c-0.7,0-1.3,0-2,0c-2.7,0-5.7,0.7-8,1.3L85.1,26.6z M147.3,116.3c-0.7,2-2.7,3.3-4.7,3.3c-0.7,0-1,0-1.7-0.3l-20.6-7.3
		c1.7-2.7,3-6,3.3-9.3l20.6,7.3C146.9,111,148.3,113.7,147.3,116.3z"/>
</g>
</svg>
