<?xml version="1.0" encoding="utf-8"?>
<!-- Generator: Adobe Illustrator 22.0.0, SVG Export Plug-In . SVG Version: 6.00 Build 0)  -->
<svg version="1.1" id="Слой_1" xmlns="http://www.w3.org/2000/svg" xmlns:xlink="http://www.w3.org/1999/xlink" x="0px" y="0px"
	 viewBox="0 0 200 200" style="enable-background:new 0 0 200 200;" xml:space="preserve">
<style type="text/css">
	.st0{display:none;}
	.st1{display:inline;fill:#262626;}
	.st2{fill:#262626;}
</style>
<g class="st0">
	<path class="st1" d="M99.7,0C44.9,0,0,44.9,0,99.7s44.9,99.7,99.7,99.7s99.7-44.9,99.7-99.7S154.6,0,99.7,0z M99.7,189.5
		c-49.5,0-89.8-40.2-89.8-89.8S50.2,10,99.7,10s89.8,40.2,89.8,89.8S149.3,189.5,99.7,189.5z M99.7,82.1c-9.6,0-17.6,8-17.6,17.6
		s8,17.6,17.6,17.6s17.6-8,17.6-17.6S109.4,82.1,99.7,82.1z M99.7,107.4c-4.3,0-7.6-3.3-7.6-7.6c0-4.3,3.3-7.6,7.6-7.6
		c4.3,0,7.6,3.3,7.6,7.6C107.4,104,104,107.4,99.7,107.4z M85.1,26.6c-0.3-2.7,1.7-5.3,4.3-5.7c2.7-0.3,5.3,1.7,5.7,4.3l6.6,50.2
		c-0.7,0-1.3,0-2,0c-2.7,0-5.7,0.7-8,1.3L85.1,26.6z M147.3,116.3c-0.7,2-2.7,3.3-4.7,3.3c-0.7,0-1,0-1.7-0.3l-20.6-7.3
		c1.7-2.7,3-6,3.3-9.3l20.6,7.3C146.9,111,148.3,113.7,147.3,116.3z"/>
</g>
<g>
	<path class="st2" d="M158.7,28h-19.5v-2.2c0-7.1-5.8-12.8-12.9-12.8l0,0h-6.4C115.7,2.5,103.8-2.7,93.2,1.4
		C87.9,3.5,83.7,7.7,81.6,13h-6.3c-7,0-12.6,5.7-12.6,12.6c0,0,0,0.1,0,0.2v2.2H43.1c-9.5,0-17.1,7.9-17.1,17.4v137.5
		c0,9.4,7.6,17,17,17c0,0,0.1,0,0.2,0h115.5c9.4,0.1,17.1-7.4,17.1-16.9c0,0,0-0.1,0-0.2V45.4C175.8,35.9,168.1,28,158.7,28z
		 M70.9,25.8c-0.1-2.4,1.8-4.4,4.2-4.5c0,0,0.1,0,0.2,0h9.3c2,0,3.6-1.4,4-3.2c1.4-5.9,6.2-9.8,12-9.8c5.8,0,10.8,4.1,12,9.7
		c0.4,2,2.1,3.3,4.1,3.3h9.6c2.5,0,4.5,2,4.5,4.5l0,0v16.4H70.9V25.8z M167.5,182.9c0,4.8-3.9,8.7-8.6,8.7c0,0-0.1,0-0.2,0H43.1
		c-4.8,0.1-8.7-3.7-8.8-8.5c0,0,0-0.1,0-0.2V45.4c0-4.9,3.9-9,8.8-9h19.5v10.1c-0.1,2.1,1.6,4,3.7,4c0.1,0,0.2,0,0.2,0H135
		c2.2,0.1,4.1-1.7,4.2-4c0,0,0,0,0-0.1V36.3h19.5c4.9,0,8.8,4.2,8.8,9V182.9z"/>
	<path class="st2" d="M89.7,139.5H53.9c-2.3,0-4.2,1.9-4.2,4.2v34.5c0,2.3,1.9,4.2,4.2,4.2h35.8c2.3,0,4.2-1.9,4.2-4.2v-34.5
		C93.8,141.4,92,139.5,89.7,139.5z M85.5,174.1H58v-26.2h27.5V174.1z"/>
	<path class="st2" d="M62.9,164.6C62.9,164.6,62.9,164.6,62.9,164.6L62.9,164.6l5,3.9c1.7,1.4,4.2,1.2,5.7-0.5l7.8-8.9
		c1.5-1.7,1.2-4.4-0.5-5.9c-1.7-1.5-4.3-1.3-5.8,0.4l-5.2,5.9l-1.8-1.4c-1.8-1.5-4.4-1.2-5.9,0.6C60.8,160.5,61.1,163.2,62.9,164.6z
		"/>
	<path class="st2" d="M104.6,156.2h25.8c2.3,0,4.2-1.9,4.2-4.2s-1.9-4.2-4.2-4.2h-25.8c-2.3,0-4.2,1.9-4.2,4.2
		S102.3,156.2,104.6,156.2z"/>
	<path class="st2" d="M147.8,165.3h-43.2c-2.3,0-4.2,1.9-4.2,4.2s1.9,4.2,4.2,4.2h43.2c2.3,0,4.2-1.9,4.2-4.2
		C152,167.2,150.2,165.3,147.8,165.3z"/>
	<path class="st2" d="M155,88.9l-9.6-4.3L136.9,71c-2.9-4.5-7.9-7.3-13.2-7.2H90.6c-4.9,0-9.4,2.2-12.4,6l-11,14.4l-18.5,5
		c-5.5,1.5-9.4,6.5-9.4,12.2v7.2c0,7,5.7,12.9,12.8,12.9h0.4c2.1,5.8,8,10.6,14.9,10.6c6.9,0,12.7-4.7,14.9-10.6h35.9
		c2.1,5.8,8,10.6,14.9,10.6s12.7-4.7,14.9-10.6h1.9c7,0,12.8-5.9,12.8-12.9v-8.3C162.5,95.5,159.5,91,155,88.9z M67.4,123.7
		c-4.1,0-7.4-3.3-7.4-7.4s3.3-7.4,7.4-7.4c4.1,0,7.4,3.3,7.4,7.4S71.4,123.7,67.4,123.7z M140.4,116.3c0,4.1-3.3,7.4-7.4,7.4
		s-7.4-3.3-7.4-7.4c0-4.1,3.3-7.4,7.4-7.4S140.4,112.2,140.4,116.3L140.4,116.3z M154.2,108.7c0,2.5-2,4.5-4.5,4.6h-1.3
		c-1.5-7.5-7.8-12.6-15.4-12.6c-7.6,0-13.9,5.1-15.4,12.6H82.8c-1.4-7.4-7.9-12.7-15.4-12.6c-7.4,0-13.9,5.2-15.4,12.5
		c-2.4-0.1-4.3-2-4.3-4.5v-7.2c0-2,1.3-3.7,3.2-4.2l19.8-5.4c0.9-0.2,1.7-0.7,2.2-1.5l11.9-15.5c1.4-1.8,3.5-2.8,5.8-2.7h33.1
		c2.5,0,4.8,1.2,6.2,3.3l9.2,14.6c0.4,0.7,1.1,1.2,1.8,1.5l10.7,4.8c1.6,0.7,2.6,2.3,2.6,4L154.2,108.7L154.2,108.7z"/>
</g>
</svg>
