<?xml version="1.0" encoding="utf-8"?>
<!-- Generator: Adobe Illustrator 22.0.0, SVG Export Plug-In . SVG Version: 6.00 Build 0)  -->
<svg version="1.1" id="Слой_1" xmlns="http://www.w3.org/2000/svg" xmlns:xlink="http://www.w3.org/1999/xlink" x="0px" y="0px"
	 viewBox="0 0 200 200" style="enable-background:new 0 0 200 200;" xml:space="preserve">
<style type="text/css">
	.st0{fill:#262626;}
</style>
<g>
	<path class="st0" d="M4.2,149.8h75v18.8h-4.6c-12.5,0-22.9,10.4-22.9,23.3c0,2.5,1.7,4.2,4.2,4.2h88.7c2.5,0,4.2-2.1,4.2-4.2
		c0-12.5-10.4-22.9-22.9-22.9h-5v-18.8h75c2.5,0,4.2-1.7,4.2-4.2V8.9c0-2.5-1.7-4.2-4.2-4.2H4.2C1.7,4.8,0,6.4,0,8.9v136.7
		C0,148.1,1.7,149.8,4.2,149.8z M125.4,176.8c6.7,0,12.5,4.6,14.2,10.8H60.4c1.7-6.3,7.5-10.8,14.2-10.8H125.4z M87.5,168.5v-18.8
		h25v18.8H87.5z M8.3,13.1h183.3v97.1H8.3V13.1z M8.3,118.5h183.3v22.9H8.3V118.5z"/>
</g>
</svg>
