<?xml version="1.0" encoding="utf-8"?>
<!-- Generator: Adobe Illustrator 22.0.0, SVG Export Plug-In . SVG Version: 6.00 Build 0)  -->
<svg version="1.1" id="Слой_1" xmlns="http://www.w3.org/2000/svg" xmlns:xlink="http://www.w3.org/1999/xlink" x="0px" y="0px"
	 viewBox="0 0 200 200" style="enable-background:new 0 0 200 200;" xml:space="preserve">
<style type="text/css">
	.st0{fill:transparent;}
</style>
<symbol id="1" viewBox="0 0 200 200">
	<path class="st0" d="M94.7,26.1h13.7c2.5,0,4.1-1.7,4.1-4.1s-1.7-4.1-4.1-4.1H94.7c-2.5,0-4.1,1.7-4.1,4.1S92.2,26.1,94.7,26.1z"/>
	<path class="st0" d="M42,125.2c-5.4,5.4-5,14.5,0.8,19.1l24,19.9c3.3,2.9,5.4,7,5.4,11.6c0,6.6,4.1,22.4,23.2,23.2h32.3
		c12.8,0,23.2-10.4,23.2-23.2v-35.6c0-3.7-1.7-7-4.1-9.5V22.4c0-9.5-7.5-17-17-17h-0.8V4.1c0-2.5-1.7-4.1-4.1-4.1s-4.1,1.7-4.1,4.1
		v1.2H73.1c-9.5,0-17,7.5-17,17v15.8h-1.2c-2.5,0-4.1,1.7-4.1,4.1s1.7,4.1,4.1,4.1h1.2v4.1h-1.2c-2.5,0-4.1,1.7-4.1,4.1
		c0,2.5,1.7,4.1,4.1,4.1h1.2v63.8C51.1,120.6,45.7,121.5,42,125.2z M64.4,22.4c0-5,4.1-8.7,8.7-8.7h57.2c5,0,8.7,4.1,8.7,8.7v104.5
		c-2.1,0-4.6,0.4-6.2,1.2c-1.7-4.6-5.8-7.9-10.8-8.3c-2.5-0.4-5,0.4-7,1.2c-1.7-4.6-5.8-7.9-10.8-8.3c-2.1-0.4-4.1,0-6.2,0.8V109
		c12.4-1.7,22.4-12.4,22.4-25.7c0-14.1-11.6-25.7-25.7-25.7S69,69.2,69,83.3c0,4.6,1.2,8.7,3.3,12.4v39l-7.9-6.2V22.4z M86.4,77.1
		c-3.3-0.4-6.6,0.4-9.1,2.5c1.7-7.9,8.7-14.1,17-14.1c9.5,0,17.4,7.9,17.4,17.4c0,8.3-6.2,15.8-14.1,17v-9.9
		C98,83.7,93,77.9,86.4,77.1z M69,143c2.1,1.7,5,2.1,7.5,0.8c2.5-1.2,4.1-3.7,4.1-6.2V90.4c0-4.1,3.7-5,5-4.6c2.5,0.4,4.1,2.5,4.1,5
		v34.8c0,2.5,1.7,4.1,4.1,4.1c2.5,0,4.1-1.7,4.1-4.1c0-4.1,3.7-5,5.4-4.6c2.5,0.4,4.1,2.5,4.1,5v6.6c0,2.5,1.7,4.1,4.1,4.1
		s4.1-1.7,4.1-4.1c0.4-4.1,3.7-5,5.4-4.6c2.5,0.4,4.1,2.5,4.1,5v6.6c0,2.5,1.7,4.1,4.1,4.1c2.5,0,4.1-1.7,4.1-4.1
		c0.4-4.1,3.7-5,5.8-4.6c0.4,0,3.3,1.2,3.3,5v35.6c0,8.3-6.6,14.9-14.9,14.9H95.5c-10.8,0-14.9-9.9-14.9-14.9c0-7-2.9-13.3-8.3-17.8
		l-24-19.9c-0.8-0.8-2.9-3.7-0.4-7c2.1-2.5,5.8-0.8,6.6,0L69,143z"/>
</symbol>
<symbol id="2" viewBox="0 0 200 200">
	<path class="st0" d="M175.4,130.3l-43.5-15.9v-12.1c3.1-4.7,5.1-10,6.1-15.5c10.3-6.1,13.6-19.3,7.6-29.6c-0.4-0.6-0.7-1.2-1.2-1.8
		c0.6-2.9,0.9-5.9,0.9-8.9c0.4-25.3-19.7-46.1-44.9-46.6C75,0.5,54.9,21.3,55.3,46.6c0,3,0.3,6,0.9,8.9c-7.1,9.6-5,23.1,4.6,30.2
		c0.6,0.4,1.1,0.8,1.8,1.2c0.9,5.5,3,10.8,6.1,15.5v12l-44,16C11.9,135,3.5,147,3.5,160.5V200h193.1v-39.6
		C196.5,147,188.1,134.9,175.4,130.3z M62,68.2c0-3,1.2-5.9,3.3-8l1.7-2l-0.6-2.6c-1.3-5.1-1.5-10.5-0.5-15.7c1.5,0,2.9,0,4.5,0
		c20,0,36.6-8.3,41-19.5l0,0c3,7.5,11.5,13.7,22.7,17c1.5,5.9,1.5,12.2,0,18.1l-0.5,2.8l1.9,2c4.4,4.6,4.3,12-0.4,16.4
		c-1,1-2.2,1.8-3.5,2.3l-2.7,1.2l-0.3,3c-0.5,5.3-2.5,10.4-5.6,14.8l-0.9,1.3v19.2l-21.7,5.5l-21.6-5.5V99.2l-0.9-1.3
		c-3.1-4.4-5-9.5-5.6-14.8l-0.3-3L69.1,79C64.8,77.1,62,72.9,62,68.2z M112.3,17.5 M111.6,153.4c-0.1-0.1-0.1-0.3-0.2-0.4l3.3-2.4
		l-1.7,6.9L111.6,153.4z M87.5,157.2l-1.6-6.7l3.1,2.3c-0.1,0.2-0.2,0.3-0.3,0.5L87.5,157.2z M104.7,134.8l2.8,8.5l-7.2,5.3
		l-7.2-5.2l2.8-8.6H104.7z M80.7,129.1l6,1.5l-3.3,10L80.7,129.1z M116.9,140.5l-3.3-10l6-1.5L116.9,140.5z M13.3,160.5
		c0-9.3,5.8-17.6,14.6-20.8l41.5-14.9l12.3,50.5v0.2l0,0l3.5,14.5H13.4L13.3,160.5z M95.4,190.1l-3.5-14.4L97,160h6.3l5.3,15.7
		l-3.5,14.3H95.4z M186.4,190.1h-71.1l3.6-14.6l0,0v-0.2l12.3-50.5l40.8,14.9c8.7,3.2,14.5,11.5,14.5,20.8L186.4,190.1z"/>
	<rect x="130" y="162.5" class="st0" width="36.9" height="10"/>
</symbol>
<symbol id="3" viewBox="0 0 231.8 200">
	<path class="st0" d="M126.5,0.5v11.1h11.1v11.3C109.5,24.6,85,39.5,70,61.5h-34v11.1h51.8V61.5h-4c14.2-17,35.5-27.7,59.4-27.7
		c42.9,0,77.6,34.7,77.6,77.6s-34.7,77.6-77.6,77.6c-23.9,0-45.1-10.8-59.3-27.7h3.9v-11.1H35.9v11.1h33.9
		c16,23.4,42.9,38.8,73.3,38.8c48.9,0,88.7-39.8,88.7-88.7c0-22.5-8.4-43-22.3-58.6l6.1-6.1l7.9,7.9l7.8-7.9l-23.5-23.5l-7.9,7.8
		l7.9,7.9l-6.1,6.1c-14.4-12.7-32.8-20.8-53.1-22.1V11.6h11.1V0.5H126.5z M186.3,60.3l-34,33.9c-2.7-1.5-5.9-2.3-9.2-2.3
		c-10.6,0-19.4,8.7-19.4,19.4s8.7,19.4,19.4,19.4s19.4-8.7,19.4-19.4c0-3.4-0.8-6.5-2.3-9.3l33.9-33.9L186.3,60.3z M15.2,83.6v11.1
		h72.6V83.6H15.2z M143.1,103c4.7,0,8.3,3.7,8.3,8.3s-3.7,8.3-8.3,8.3c-4.7,0-8.3-3.7-8.3-8.3S138.5,103,143.1,103z M-0.9,105.8v11.1
		h88.7v-11.1H-0.9z M15.2,128V139h72.6V128H15.2z"/>
</symbol>
<symbol id="4" viewBox="0 0 200 200">
	<path class="st0" d="M99.7,0C44.9,0,0,44.9,0,99.7s44.9,99.7,99.7,99.7s99.7-44.9,99.7-99.7S154.6,0,99.7,0z M99.7,189.5
		c-49.5,0-89.8-40.2-89.8-89.8S50.2,10,99.7,10s89.8,40.2,89.8,89.8S149.3,189.5,99.7,189.5z M99.7,82.1c-9.6,0-17.6,8-17.6,17.6
		s8,17.6,17.6,17.6s17.6-8,17.6-17.6S109.4,82.1,99.7,82.1z M99.7,107.4c-4.3,0-7.6-3.3-7.6-7.6c0-4.3,3.3-7.6,7.6-7.6
		c4.3,0,7.6,3.3,7.6,7.6C107.4,104,104,107.4,99.7,107.4z M85.1,26.6c-0.3-2.7,1.7-5.3,4.3-5.7c2.7-0.3,5.3,1.7,5.7,4.3l6.6,50.2
		c-0.7,0-1.3,0-2,0c-2.7,0-5.7,0.7-8,1.3L85.1,26.6z M147.3,116.3c-0.7,2-2.7,3.3-4.7,3.3c-0.7,0-1,0-1.7-0.3l-20.6-7.3
		c1.7-2.7,3-6,3.3-9.3l20.6,7.3C146.9,111,148.3,113.7,147.3,116.3z"/>
</symbol>
<symbol id="5" viewBox="0 0 200 200">
	<g>
		<path class="st2" d="M158.7,28h-19.5v-2.2c0-7.1-5.8-12.8-12.9-12.8l0,0h-6.4C115.7,2.5,103.8-2.7,93.2,1.4
			C87.9,3.5,83.7,7.7,81.6,13h-6.3c-7,0-12.6,5.7-12.6,12.6c0,0,0,0.1,0,0.2v2.2H43.1c-9.5,0-17.1,7.9-17.1,17.4v137.5
			c0,9.4,7.6,17,17,17c0,0,0.1,0,0.2,0h115.5c9.4,0.1,17.1-7.4,17.1-16.9c0,0,0-0.1,0-0.2V45.4C175.8,35.9,168.1,28,158.7,28z
			 M70.9,25.8c-0.1-2.4,1.8-4.4,4.2-4.5c0,0,0.1,0,0.2,0h9.3c2,0,3.6-1.4,4-3.2c1.4-5.9,6.2-9.8,12-9.8c5.8,0,10.8,4.1,12,9.7
			c0.4,2,2.1,3.3,4.1,3.3h9.6c2.5,0,4.5,2,4.5,4.5l0,0v16.4H70.9V25.8z M167.5,182.9c0,4.8-3.9,8.7-8.6,8.7c0,0-0.1,0-0.2,0H43.1
			c-4.8,0.1-8.7-3.7-8.8-8.5c0,0,0-0.1,0-0.2V45.4c0-4.9,3.9-9,8.8-9h19.5v10.1c-0.1,2.1,1.6,4,3.7,4c0.1,0,0.2,0,0.2,0H135
			c2.2,0.1,4.1-1.7,4.2-4c0,0,0,0,0-0.1V36.3h19.5c4.9,0,8.8,4.2,8.8,9V182.9z"/>
		<path class="st2" d="M89.7,139.5H53.9c-2.3,0-4.2,1.9-4.2,4.2v34.5c0,2.3,1.9,4.2,4.2,4.2h35.8c2.3,0,4.2-1.9,4.2-4.2v-34.5
			C93.8,141.4,92,139.5,89.7,139.5z M85.5,174.1H58v-26.2h27.5V174.1z"/>
		<path class="st2" d="M62.9,164.6C62.9,164.6,62.9,164.6,62.9,164.6L62.9,164.6l5,3.9c1.7,1.4,4.2,1.2,5.7-0.5l7.8-8.9
			c1.5-1.7,1.2-4.4-0.5-5.9c-1.7-1.5-4.3-1.3-5.8,0.4l-5.2,5.9l-1.8-1.4c-1.8-1.5-4.4-1.2-5.9,0.6C60.8,160.5,61.1,163.2,62.9,164.6z
			"/>
		<path class="st2" d="M104.6,156.2h25.8c2.3,0,4.2-1.9,4.2-4.2s-1.9-4.2-4.2-4.2h-25.8c-2.3,0-4.2,1.9-4.2,4.2
			S102.3,156.2,104.6,156.2z"/>
		<path class="st2" d="M147.8,165.3h-43.2c-2.3,0-4.2,1.9-4.2,4.2s1.9,4.2,4.2,4.2h43.2c2.3,0,4.2-1.9,4.2-4.2
			C152,167.2,150.2,165.3,147.8,165.3z"/>
		<path class="st2" d="M155,88.9l-9.6-4.3L136.9,71c-2.9-4.5-7.9-7.3-13.2-7.2H90.6c-4.9,0-9.4,2.2-12.4,6l-11,14.4l-18.5,5
			c-5.5,1.5-9.4,6.5-9.4,12.2v7.2c0,7,5.7,12.9,12.8,12.9h0.4c2.1,5.8,8,10.6,14.9,10.6c6.9,0,12.7-4.7,14.9-10.6h35.9
			c2.1,5.8,8,10.6,14.9,10.6s12.7-4.7,14.9-10.6h1.9c7,0,12.8-5.9,12.8-12.9v-8.3C162.5,95.5,159.5,91,155,88.9z M67.4,123.7
			c-4.1,0-7.4-3.3-7.4-7.4s3.3-7.4,7.4-7.4c4.1,0,7.4,3.3,7.4,7.4S71.4,123.7,67.4,123.7z M140.4,116.3c0,4.1-3.3,7.4-7.4,7.4
			s-7.4-3.3-7.4-7.4c0-4.1,3.3-7.4,7.4-7.4S140.4,112.2,140.4,116.3L140.4,116.3z M154.2,108.7c0,2.5-2,4.5-4.5,4.6h-1.3
			c-1.5-7.5-7.8-12.6-15.4-12.6c-7.6,0-13.9,5.1-15.4,12.6H82.8c-1.4-7.4-7.9-12.7-15.4-12.6c-7.4,0-13.9,5.2-15.4,12.5
			c-2.4-0.1-4.3-2-4.3-4.5v-7.2c0-2,1.3-3.7,3.2-4.2l19.8-5.4c0.9-0.2,1.7-0.7,2.2-1.5l11.9-15.5c1.4-1.8,3.5-2.8,5.8-2.7h33.1
			c2.5,0,4.8,1.2,6.2,3.3l9.2,14.6c0.4,0.7,1.1,1.2,1.8,1.5l10.7,4.8c1.6,0.7,2.6,2.3,2.6,4L154.2,108.7L154.2,108.7z"/>
	</g>
</symbol>
<symbol id="6" viewBox="0 0 200 200">
	<path class="st0" d="M4.2,149.8h75v18.8h-4.6c-12.5,0-22.9,10.4-22.9,23.3c0,2.5,1.7,4.2,4.2,4.2h88.7c2.5,0,4.2-2.1,4.2-4.2
		c0-12.5-10.4-22.9-22.9-22.9h-5v-18.8h75c2.5,0,4.2-1.7,4.2-4.2V8.9c0-2.5-1.7-4.2-4.2-4.2H4.2C1.7,4.8,0,6.4,0,8.9v136.7
		C0,148.1,1.7,149.8,4.2,149.8z M125.4,176.8c6.7,0,12.5,4.6,14.2,10.8H60.4c1.7-6.3,7.5-10.8,14.2-10.8H125.4z M87.5,168.5v-18.8
		h25v18.8H87.5z M8.3,13.1h183.3v97.1H8.3V13.1z M8.3,118.5h183.3v22.9H8.3V118.5z"/>
</symbol>
</svg>
